<svg id="Layer_1" data-name="Layer 1" xmlns="http://www.w3.org/2000/svg" width="210mm" height="183.15035mm" viewBox="0 0 595.27559 519.16636"><defs><style>.cls-1{fill:#b02a25;}.cls-2{fill:#231f20;}.cls-3{fill:#fff;}</style></defs><rect x="96.03644" y="253.82694" width="1.93869" height="81.42495" transform="matrix(-0.0779, -0.99696, 0.99696, -0.0779, -189.08155, 414.1957)"/><rect x="128.66745" y="207.94536" width="1.93869" height="81.42495" transform="translate(274.22925 488.92734) rotate(176.49588)"/><polygon points="174.37 230.693 175.889 231.898 149.581 255.026 132.93 287.35 131.412 286.145 148.122 253.743 174.37 230.693"/><rect x="105.80801" y="274.47822" width="1.93869" height="81.42495" transform="translate(-77.72914 592.14543) rotate(-127.61369)"/><rect x="172.56999" y="236.25918" width="1.93869" height="81.42495" transform="translate(411.62446 53.0416) rotate(78.82447)"/><rect x="171.9914" y="261.39107" width="1.93869" height="81.42495" transform="translate(520.34488 279.60381) rotate(116.08625)"/><rect x="156.98507" y="280.61562" width="1.93869" height="81.42495" transform="translate(449.39039 529.33391) rotate(151.69371)"/><path class="cls-1" d="M97.97826,248.81452c-13.26252,18.37063-55.8875,28.60037-51.99026,52.73562,5.31583,32.92056,29.397,53.81012,58.69168,64.37306,13.6592,4.92518,27.47291,11.3938,42.82278,8.91519a88.53352,88.53352,0,0,0,73.28825-101.51447c-3.95692-24.50492-23.09488-30.535-41.90319-43.782-18.24071-12.84721-35.84581-33.3437-59.61126-29.50618C95.141,203.933,111.2408,230.444,97.97826,248.81452ZM214.5368,275.30194a81.08841,81.08841,0,0,1-67.12514,92.9778c-14.4772,2.3377-27.42647-4.15359-40.22935-8.98311-26.29517-9.91909-47.94709-28.40811-52.74838-58.14213C50.86445,279.049,90.87,269.37289,103.01729,252.54736c12.14728-16.82568-3.56379-40.80108,18.54179-44.37058,20.88536-3.37245,35.71756,16.04594,52.08632,26.84489C191.92685,247.08248,210.77029,251.97621,214.5368,275.30194Z"/><path d="M102.09262,252.92813C89.94531,269.75367,50.86445,279.049,54.43393,301.1545c4.84208,29.98665,26.801,48.619,53.41989,58.39205,12.627,4.636,25.33327,11.03009,39.55784,8.73319a81.08841,81.08841,0,0,0,67.12514-92.9778c-3.85527-23.8754-20.2502-28.99748-39.19688-40.98727-16.13762-10.21218-33.44516-29.42158-53.78084-26.13789C99.4535,211.74628,114.2399,236.10245,102.09262,252.92813Zm107.03229,24.28769a74.387,74.387,0,0,1-61.57783,85.2938c-13.484,2.17734-25.4552-4.25758-37.3397-8.84622-23.8619-9.21316-43.58257-25.65807-47.95424-52.7315-3.27451-20.27876,33.44875-29.07556,44.59215-44.51074s-3.293-37.50872,16.98573-40.78323c17.74391-2.86519,32.55261,15.42447,46.93827,23.85077C189.26515,250.32252,205.44109,254.40222,209.12491,277.21582Z"/><circle cx="135.81621" cy="288.10886" r="4.84672"/><polygon points="138.854 287.775 140.778 288.011 131.03 366.601 129.106 366.365 138.854 287.775"/><polygon points="103.885 253.919 105.329 252.847 115.2 273.834 133.941 290.954 132.497 292.026 114.3 275.63 103.885 253.919"/><polygon points="415.746 311.319 413.964 312.075 445.676 383.974 447.459 383.218 415.746 311.319"/><polygon points="390.332 384.6 392.178 385.133 416.536 309.791 414.689 309.258 390.332 384.6"/><polygon points="418.099 314.417 418.296 316.276 499.171 307.1 498.975 305.241 418.099 314.417"/><polygon points="416.356 313.455 415.395 315.094 482.257 351 483.219 349.362 416.356 313.455"/><path class="cls-1" d="M336.73,347.353c20.60285,42.48215,73.18252,60.24461,117.43982,39.67355,16.407-7.62607,22.95663-22.65859,31.72083-36.68405,14.87693-23.80777,24.07449-50.75076,11.10948-77.484-20.60288-42.48222-73.18253-60.24461-117.43989-39.67352-22.12872,10.28556-10.11943,38.56014-17.87032,59.22053C353.93917,313.06583,326.42855,326.1119,336.73,347.353Zm8.00669-2.70386c-9.43514-19.45483,15.76224-31.4039,22.86122-50.32688,7.09884-18.92291-3.9004-44.81979,16.36733-54.24035,40.53566-18.84122,88.6937-2.57248,107.564,36.33719,11.91913,24.57669,2.89227,49.09911-10.86764,70.94259-8.02468,12.739-13.429,26.68422-28.361,33.62467C411.76516,399.82749,363.607,383.55882,344.73669,344.64915Z"/><path d="M344.73669,344.64915c18.87029,38.90967,67.02847,55.17834,107.56392,36.33722,14.74849-6.85519,20.127-20.47392,28.145-33.00753,14.01915-21.91454,23.08812-46.80695,11.08359-71.55973-18.87028-38.90967-67.02832-55.17841-107.564-36.33719-20.26773,9.42056-9.26849,35.31744-16.36733,54.24035C360.49893,313.24525,335.30155,325.19432,344.73669,344.64915Zm7.43874-2.33592c-8.65541-17.84707,14.45954-28.80864,20.97185-46.16778s-3.578-41.11586,15.01482-49.75793c37.18563-17.2841,81.36378-2.35979,98.67461,33.33435,11.14343,22.97725,2.10824,45.8999-11.15385,66.10792-7.34,11.18423-11.58445,23.65978-24.83271,29.81765C413.66445,392.93158,369.48626,378.00737,352.17543,342.31323Z"/><ellipse cx="418.77991" cy="311.6525" rx="4.84672" ry="4.67073" transform="translate(-56.34135 95.40338) rotate(-12.18389)"/><polygon points="421.628 311.729 423.31 310.778 389.739 261.172 383.072 243.081 381.39 244.033 388.078 262.158 421.628 311.729"/><path d="M421.45889,312.912l1.932.085s9.33594-25.5575,9.92522-39.35637c.72492-16.97476-4.99348-39.16482-4.99348-39.16482l-1.932-.085s5.97814,23.40516,4.99525,39.13664C430.45476,288.43017,421.45889,312.912,421.45889,312.912Z"/><path d="M420.20605,314.23905l1.27311,1.39075s26.20624-18.36148,34.16932-29.34877c6.64751-9.1721,14.94438-30.3502,14.94438-30.3502l-1.27311-1.39075s-7.73371,19.63439-15.39742,30.73933C446.31071,296.30887,420.20605,314.23905,420.20605,314.23905Z"/><polygon points="347.247 348.357 348.233 349.952 418.185 308.875 417.198 307.28 347.247 348.357"/><polygon points="363.431 305.357 363.355 307.092 420.081 308.594 420.157 306.859 363.431 305.357"/><path class="cls-2" d="M254.51751,152.9024c-2.464.716-14.74567-3.47579-27.29944-2.994-8.05855.30924-14.626,3.74714-14.7748.13945-.17882-4.33649,1.13195-16.3474,4.80719-24.51928,4.98366-11.08118,14.53306-18.2709,14.53306-18.2709A123.56557,123.56557,0,0,0,250.50073,125.603c7.87555,6.07172,18.46617,4.37017,18.94968,5.57893C271.54511,136.41866,258.02794,151.88239,254.51751,152.9024Z"/><path class="cls-2" d="M240.08362,178.25231s.47171,5.68946,19.11084,8.31879c16.61529,2.34383,50.16936,1.71943,71.565.85551,28.09289-1.13435,77.8322,4.61669,75.59415,6.25465-12.47015,9.12653-36.40276,25.91289-59.22942,44.72416-42.27843,34.84133-84.34194,73.49354-89.0394,72.57526-14.09816-2.756-40.04461-7.7769-61.40513-15.6334-50.25906-18.48552-52.90039-31.4031-52.90039-31.4031s23.636-19.75182,31.03114-26.86549c8.99207-8.64978,26.24438-26.74752,34.10575-36.43641,4.362-5.376,16.278-22.40239,16.278-22.40239s-23.961,25.45149-47.28437,47.53222c-16.99255,16.08723-33.3123,27.63414-38.34571,34.10566-8.90077,11.44381-13.71415,22.06663-12.95549,23.51817,2.14478,4.1036,12.58352,11.86449,29.67976,16.31523,77.10552,20.07325,80.67005,24.40286,99.52763,34.53974,1.611.866,14.96543-18.93191,35.829-40.21767,16.60682-16.94287,37.72436-34.35463,58.23143-51.98293,16.42679-14.12081,58.817-37.88044,66.265-44.12287.30035-.25173-6.29449,31.77887-7.15347,66.06663-.7311,29.18324,1.45836,67.79663,2.41745,78.14123.69425,7.48813,15.09514-15.35,15.3854-16.00524.51717-1.16753-7.81043-41.82877-7.41367-78.94708.10472-9.79684,2.28108-43.01421,4.74833-56.61968,0,0,4.24617-5.114,4.90944-7.141.57883-1.76894,7.24348,19.60454,13.12281,18.51578,10.042-1.85962,5.99517-43.87212,5.50457-44.12293-2.48571-1.27075-13.73781,13.15258-14.468,12.54632-.10088-.08377-7.36725.41221-7.36725.41221-.20106-3.11032,2.48264-23.05017,3.46826-35.956.65973-8.63868-4.3847.32016-5.54791.42151-1.1038.09618-4.43919,36.43126-5.69673,36.54183-16.32357,1.43514-45.06041,4.93644-75.3958,5.56642-28.34786.5887-58.22824-3.5153-79.68536-2.64077C237.48281,175.74539,240.08362,178.25231,240.08362,178.25231Z"/><path class="cls-2" d="M427.51937,136.44482l-3.34734,2.95682s-24.78584,4.50339-29.48452,6.239c-4.21176,1.55579-16.23462,7.68027-16.23462,7.68027s7.66791-15.61472,18.26783-19.13562c6.96618-2.3139,27.77056-4.27713,29.52482-7.891.86409-1.78008-2.0208-8.108-9.1308-8.1762a50.11664,50.11664,0,0,0-12.09693,1.98049c-3.92468,1.29732-10.89708,4.58961-14.85539,5.78035-2.57325.77409-10.90057,2.36483-10.90057,2.36483l7.63-12.08065s7.87664-1.78418,10.40853-2.68483c6.09031-2.16647,14.47727-7.35484,21.30213-8.359,3.83138-.56374,13.47918-1.28207,16.2718,1.40094,6.94883,6.6761,1.07857,17.97648,1.07857,17.97648Z"/><path class="cls-3" d="M451.043,160.99745a30.17244,30.17244,0,0,1,4.65914,20.60244c-.51861,4.269-2.93347,12.75909-5.25426,16.3795-1.76278,2.74994-8.05842,3.22336-8.05842,3.22336l5.331-8.6039a27.73042,27.73042,0,0,1-9.474-8.97818c-2.21916-3.5705-2.71343-8.07132-1.76432-10.579,1.69623-4.48165,11.73431-15.156,11.73431-15.156A39.40273,39.40273,0,0,1,451.043,160.99745Z"/><path class="cls-2" d="M444.28859,173.71657c-1.021,2.13429-7.46334,8.30637-7.46334,8.30637l-1.51793-3.28924S444.81643,172.61315,444.28859,173.71657Z"/><path class="cls-2" d="M448.06364,182.88458l-6.42128,7.95235-.828-2.4111a26.41048,26.41048,0,0,1,3.716-3.58864C445.30911,184.37919,448.06364,182.88458,448.06364,182.88458Z"/><path class="cls-2" d="M448.24577,163.011a66.81133,66.81133,0,0,1,1.95375,6.621c.30931,1.76037.78255,8.11715.78255,8.11715l-.71062,2.10547s-.0486-7.38341-.538-9.67232c-.2328-1.08883-.95607-4.06114-.95607-4.06114Z"/><path class="cls-2" d="M448.81457,198.319a5.5386,5.5386,0,0,0,1.44707-.875,36.93253,36.93253,0,0,0,5.47272-19.76713,55.6752,55.6752,0,0,0-2.99325-15.26673l-.62905.10821s2.85966,9.09363,2.91567,15.8198C455.08847,185.63183,448.81457,198.319,448.81457,198.319Z"/><path class="cls-2" d="M239.04535,149.27609l-9.78167-2.34315s4.66762,51.84663,8.32178,72.98139c4.52556,26.17469,22.18533,103.91023,22.18533,103.91023l11.92028-16.48875s-21.5066-68.46249-29.32633-106.48274C239.381,186.346,239.04535,149.27609,239.04535,149.27609Z"/></svg>