<svg id="Layer_1" data-name="Layer 1" xmlns="http://www.w3.org/2000/svg" width="210mm" height="183.15035mm" viewBox="0 0 595.27559 519.16636"><defs><style>.cls-1{fill:#b02a25;}.cls-2{fill:#231f20;}.cls-3{fill:#fff;}</style></defs><rect x="136.18827" y="283.62757" width="1.93869" height="81.42495" transform="translate(285.69558 643.62855) rotate(177.97405)"/><rect x="91.73873" y="249.07123" width="1.93869" height="81.42495" transform="translate(380.72361 191.7203) rotate(88.93794)"/><rect x="99.11578" y="221.52135" width="1.93869" height="81.42495" transform="translate(363.87223 358.15029) rotate(130.87197)"/><rect x="157.23715" y="274.74481" width="1.93869" height="81.42495" transform="translate(469.24138 482.19028) rotate(144.82837)"/><rect x="121.89748" y="206.41498" width="1.93869" height="81.42495" transform="translate(-36.09882 21.52125) rotate(-8.73348)"/><rect x="146.98189" y="208.06389" width="1.93869" height="81.42495" transform="translate(136.77784 -40.45435) rotate(28.5283)"/><rect x="165.54958" y="223.87573" width="1.93869" height="81.42495" transform="translate(331.96117 -0.67456) rotate(64.13577)"/><path class="cls-1" d="M91.51568,321.42017c17.78884,14.03323,26.19309,57.05537,50.47247,54.19005,33.11717-3.9083,55.01384-27.07752,66.8154-55.8955,5.50271-13.437,12.554-26.96249,10.73172-42.404a88.37009,88.37009,0,0,0-41.20309-64.83006c-8.9706-5.58075-18.969-5.58423-29.56933-7.6744-8.83952-1.743-18.09756-6.15549-27.52711-5.04266a88.53349,88.53349,0,0,0-77.54705,98.29952C46.554,322.34247,73.727,307.38692,91.51568,321.42017Zm31.42981-115.32409c8.60279-1.01525,17.04971,3.35564,25.11718,4.93628,7.43068,1.45589,13.81556.95866,20.4277,4.32934,23.32238,11.88913,41.19,33.81157,44.48834,61.76025,1.71872,14.56366-5.31843,27.22458-10.68908,39.81-11.0305,25.84865-30.42529,46.69311-60.33688,50.2231-22.23752,2.62435-30.20024-37.75714-46.49291-50.61034C79.167,303.69159,54.544,318.36682,51.91961,296.12922A81.08849,81.08849,0,0,1,122.94549,206.09608Z"/><path d="M95.80087,317.48482c16.29267,12.85319,23.91436,52.29463,46.15188,49.67028,30.16573-3.56,49.71682-24.70506,60.61519-50.88335,5.16979-12.418,12.0995-24.84028,10.41077-39.1498a80.94338,80.94338,0,0,0-38.09377-59.5982c-8.57392-5.27312-17.896-5.20151-28.05564-6.993-7.61285-1.34243-15.81181-5.38726-23.88381-4.43465a81.08849,81.08849,0,0,0-71.02588,90.03314C54.544,318.36682,79.50805,304.63164,95.80087,317.48482ZM124.627,211.58461c7.21547-.85153,14.57559,3.137,21.39524,4.28773,9.642,1.627,18.4676,1.35457,26.562,6.38737a74.25005,74.25005,0,0,1,34.63537,54.48108c1.60081,13.56457-5.33833,25.25067-10.4292,36.92886-10.22152,23.44767-27.49178,42.44972-54.72689,45.66386-20.39987,2.40747-27.62394-34.65725-42.57029-46.44822s-37.615,1.69184-40.02244-18.708A74.3871,74.3871,0,0,1,124.627,211.58461Z"/><circle cx="132.38657" cy="285.29086" r="4.84672"/><polygon points="132.183 282.242 132.5 280.329 210.603 293.417 210.285 295.329 132.183 282.242"/><polygon points="96.867 315.737 95.858 314.248 135.15 287.285 136.159 288.774 96.867 315.737"/><path class="cls-1" d="M468.06482,275.71589c-11.93668-18.5592-6.16524-48.73146-29.96628-54.11508-47.602-10.76721-95.24856,17.692-106.4215,63.56558-11.17292,45.87349,18.35873,91.78991,65.96074,102.55713,47.60193,10.76719,95.2485-17.69211,106.42142-63.5656C509.64567,301.22114,480.00135,294.27505,468.06482,275.71589Zm-69.87472,105.709c-43.599-9.86177-70.64726-51.9169-60.41392-93.93272s53.87313-68.08185,97.47218-58.22008c21.79941,4.93086,16.51346,32.56582,27.44608,49.56428,10.93277,16.9985,38.08444,23.36052,32.96776,44.36842C485.42885,365.22059,441.78893,391.2866,398.1901,381.42488Z"/><path d="M462.69444,278.83636c-10.93262-16.99846-5.64667-44.63342-27.44608-49.56428-43.599-9.86177-87.23883,16.20427-97.47218,58.22008s16.81487,84.07095,60.41392,93.93272c43.59883,9.86172,87.23875-16.20429,97.4721-58.2201C500.77888,302.19688,473.62721,295.83486,462.69444,278.83636Zm-64.21333,97.06373c-39.99584-9.04675-64.80871-47.62633-55.42106-86.16991s49.42094-62.45554,89.41678-53.40878c19.998,4.52339,15.14876,29.87455,25.178,45.46826s34.937,21.43,30.24317,40.70176C478.51037,361.035,438.477,384.94686,398.48111,375.90009Z"/><ellipse cx="416.32285" cy="306.57819" rx="4.84672" ry="4.67073"/><polygon points="413.555 307.254 411.71 306.68 436.755 232.015 438.6 232.59 413.555 307.254"/><polygon points="413.97 308.375 412.099 308.866 390.707 233.154 392.577 232.663 413.97 308.375"/><polygon points="415.475 309.407 414.524 311.036 343.567 272.547 344.517 270.919 415.475 309.407"/><polygon points="417.571 309.137 417.771 310.995 336.781 319.094 336.581 317.236 417.571 309.137"/><polygon points="419.073 307.829 420.358 309.228 359.405 361.255 358.119 359.856 419.073 307.829"/><polygon points="419.218 305.612 421.12 305.975 405.296 382.947 403.394 382.584 419.218 305.612"/><polygon points="459.526 371.878 457.833 372.79 418.124 304.285 419.816 303.374 459.526 371.878"/><polygon points="493.991 327.358 493.364 329.126 416.319 303.738 416.946 301.97 493.991 327.358"/><polygon points="469.096 288.743 469.537 290.423 414.406 303.863 413.965 302.183 469.096 288.743"/><path class="cls-2" d="M254.51751,152.9024c-2.464.716-14.74567-3.47579-27.29944-2.994-8.05855.30924-14.626,3.74714-14.7748.13945-.17882-4.33649,1.13195-16.3474,4.80719-24.51928,4.98366-11.08118,14.53306-18.2709,14.53306-18.2709A123.56557,123.56557,0,0,0,250.50073,125.603c7.87555,6.07172,18.46617,4.37017,18.94968,5.57893C271.54511,136.41866,258.02794,151.88239,254.51751,152.9024Z"/><path class="cls-2" d="M240.08362,178.25231s.47171,5.68946,19.11084,8.31879c16.61529,2.34383,50.16936,1.71943,71.565.85551,28.09289-1.13435,77.8322,4.61669,75.59415,6.25465-12.47015,9.12653-36.40276,25.91289-59.22942,44.72416-42.27843,34.84133-84.34194,73.49354-89.0394,72.57526-14.09816-2.756-40.04461-7.7769-61.40513-15.6334-50.25906-18.48552-52.90039-31.4031-52.90039-31.4031s23.636-19.75182,31.03114-26.86549c8.99207-8.64978,26.24438-26.74752,34.10575-36.43641,4.362-5.376,16.278-22.40239,16.278-22.40239s-23.961,25.45149-47.28437,47.53222c-16.99255,16.08723-33.3123,27.63414-38.34571,34.10566-8.90077,11.44381-13.71415,22.06663-12.95549,23.51817,2.14478,4.1036,12.58352,11.86449,29.67976,16.31523,77.10552,20.07325,80.67005,24.40286,99.52763,34.53974,1.611.866,14.96543-18.93191,35.829-40.21767,16.60682-16.94287,37.72436-34.35463,58.23143-51.98293,16.42679-14.12081,58.817-37.88044,66.265-44.12287.30035-.25173-6.29449,31.77887-7.15347,66.06663-.7311,29.18324,1.45836,67.79663,2.41745,78.14123.69425,7.48813,15.09514-15.35,15.3854-16.00524.51717-1.16753-7.81043-41.82877-7.41367-78.94708.10472-9.79684,2.28108-43.01421,4.74833-56.61968,0,0,4.24617-5.114,4.90944-7.141.57883-1.76894,7.24348,19.60454,13.12281,18.51578,10.042-1.85962,5.99517-43.87212,5.50457-44.12293-2.48571-1.27075-13.73781,13.15258-14.468,12.54632-.10088-.08377-7.36725.41221-7.36725.41221-.20106-3.11032,2.48264-23.05017,3.46826-35.956.65973-8.63868-4.3847.32016-5.54791.42151-1.1038.09618-4.43919,36.43126-5.69673,36.54183-16.32357,1.43514-45.06041,4.93644-75.3958,5.56642-28.34786.5887-58.22824-3.5153-79.68536-2.64077C237.48281,175.74539,240.08362,178.25231,240.08362,178.25231Z"/><path class="cls-2" d="M427.51937,136.44482l-3.34734,2.95682s-24.78584,4.50339-29.48452,6.239c-4.21176,1.55579-16.23462,7.68027-16.23462,7.68027s7.66791-15.61472,18.26783-19.13562c6.96618-2.3139,27.77056-4.27713,29.52482-7.891.86409-1.78008-2.0208-8.108-9.1308-8.1762a50.11664,50.11664,0,0,0-12.09693,1.98049c-3.92468,1.29732-10.89708,4.58961-14.85539,5.78035-2.57325.77409-10.90057,2.36483-10.90057,2.36483l7.63-12.08065s7.87664-1.78418,10.40853-2.68483c6.09031-2.16647,14.47727-7.35484,21.30213-8.359,3.83138-.56374,13.47918-1.28207,16.2718,1.40094,6.94883,6.6761,1.07857,17.97648,1.07857,17.97648Z"/><path class="cls-3" d="M451.043,160.99745a30.17244,30.17244,0,0,1,4.65914,20.60244c-.51861,4.269-2.93347,12.75909-5.25426,16.3795-1.76278,2.74994-8.05842,3.22336-8.05842,3.22336l5.331-8.6039a27.73042,27.73042,0,0,1-9.474-8.97818c-2.21916-3.5705-2.71343-8.07132-1.76432-10.579,1.69623-4.48165,11.73431-15.156,11.73431-15.156A39.40273,39.40273,0,0,1,451.043,160.99745Z"/><path class="cls-2" d="M444.28859,173.71657c-1.021,2.13429-7.46334,8.30637-7.46334,8.30637l-1.51793-3.28924S444.81643,172.61315,444.28859,173.71657Z"/><path class="cls-2" d="M448.06364,182.88458l-6.42128,7.95235-.828-2.4111a26.41048,26.41048,0,0,1,3.716-3.58864C445.30911,184.37919,448.06364,182.88458,448.06364,182.88458Z"/><path class="cls-2" d="M448.24577,163.011a66.81133,66.81133,0,0,1,1.95375,6.621c.30931,1.76037.78255,8.11715.78255,8.11715l-.71062,2.10547s-.0486-7.38341-.538-9.67232c-.2328-1.08883-.95607-4.06114-.95607-4.06114Z"/><path class="cls-2" d="M448.81457,198.319a5.5386,5.5386,0,0,0,1.44707-.875,36.93253,36.93253,0,0,0,5.47272-19.76713,55.6752,55.6752,0,0,0-2.99325-15.26673l-.62905.10821s2.85966,9.09363,2.91567,15.8198C455.08847,185.63183,448.81457,198.319,448.81457,198.319Z"/><path class="cls-2" d="M239.04535,149.27609l-9.78167-2.34315s4.66762,51.84663,8.32178,72.98139c4.52556,26.17469,22.18533,103.91023,22.18533,103.91023l11.92028-16.48875s-21.5066-68.46249-29.32633-106.48274C239.381,186.346,239.04535,149.27609,239.04535,149.27609Z"/></svg>