<svg id="Layer_1" data-name="Layer 1" xmlns="http://www.w3.org/2000/svg" width="210mm" height="183.15035mm" viewBox="0 0 595.27559 519.16636"><defs><style>.cls-1{fill:#b02a25;}.cls-2{fill:#231f20;}.cls-3{fill:#fff;}</style></defs><rect x="131.40972" y="283.62757" width="1.93869" height="81.42495" transform="translate(11.54884 -4.47714) rotate(2.02595)"/><rect x="175.85926" y="249.07123" width="1.93869" height="81.42495" transform="translate(469.84011 118.35673) rotate(91.06206)"/><rect x="168.48221" y="221.52135" width="1.93869" height="81.42495" transform="translate(256.86167 -37.49919) rotate(49.12803)"/><rect x="110.36084" y="274.74481" width="1.93869" height="81.42495" transform="translate(202.03765 -6.5363) rotate(35.17163)"/><rect x="145.70051" y="206.41498" width="1.93869" height="81.42495" transform="translate(254.1157 513.65966) rotate(-171.26652)"/><rect x="120.6161" y="208.06389" width="1.93869" height="81.42495" transform="translate(347.22193 409.2783) rotate(151.4717)"/><rect x="102.04841" y="223.87573" width="1.93869" height="81.42495" transform="translate(386.04271 287.31371) rotate(115.86423)"/><path class="cls-1" d="M225.848,298.06309a88.53344,88.53344,0,1,0-175.84658-20.7524c-1.82233,15.44154,5.229,28.96708,10.73172,42.404,11.80156,28.818,33.69823,51.9872,66.8154,55.8955,24.27938,2.86532,41.7933-30.13018,59.58215-44.16341C204.91936,317.41356,222.98267,322.34247,225.848,298.06309Zm-8.23092-1.93387c-2.62435,22.2376-18.13773,17.589-34.43055,30.44218-16.29267,12.8532-33.36507,43.20805-55.60259,40.5837-29.9116-3.53-49.30638-24.37445-60.33688-50.2231-5.37065-12.58547-12.4078-25.24639-10.68908-39.81a81.08839,81.08839,0,0,1,161.0591,19.00727Z"/><path d="M217.61707,296.12922A81.08839,81.08839,0,0,0,56.558,277.122c-1.68873,14.30952,5.241,26.73175,10.41077,39.1498C77.86711,342.45,97.41819,363.59512,127.58393,367.1551c22.23752,2.62435,39.5094-27.62105,55.80206-40.47425C199.67881,313.82768,214.99272,318.36682,217.61707,296.12922Zm-7.55118-1.952c-2.40747,20.39987-15.42591,16.11311-30.37226,27.90407S147.873,361.741,127.47316,359.33351c-27.23511-3.21414-44.50537-22.21619-54.72689-45.66386-5.09087-11.67819-12.03-23.36429-10.4292-36.92886a74.38707,74.38707,0,0,1,147.74882,17.43647Z"/><circle cx="137.15011" cy="285.29086" r="4.84672"/><polygon points="137.354 282.242 137.036 280.329 58.934 293.417 59.251 295.329 137.354 282.242"/><polygon points="182.67 322.737 183.679 321.248 134.387 287.285 133.378 288.774 182.67 322.737"/><path class="cls-1" d="M413.10859,378.52162c22.06378.34246,43.98712,21.86088,61.65344,5.02716,35.33258-33.66739,38.03135-89.10057,6.02775-123.8135-32.00355-34.71288-86.59034-35.56042-121.92293-1.893-35.33252,33.66733-38.03124,89.10057-6.02769,123.81345C368.841,399.01217,391.04491,378.17905,413.10859,378.52162ZM363.80492,261.7911c32.36138-30.83622,82.35776-30.06,111.67,1.73378s26.84048,82.56538-5.5209,113.4016c-16.18061,15.418-36.2604-4.29069-56.46861-4.60456-20.20832-.31377-40.54522,18.76759-55.20135,2.87072C328.97182,343.3989,331.4437,292.62716,363.80492,261.7911Z"/><path d="M413.48541,372.32192c20.20821.31387,40.288,20.02259,56.46861,4.60456,32.36138-30.83622,34.83315-81.60786,5.5209-113.4016s-79.30862-32.57-111.67-1.73378c-32.36122,30.83606-34.8331,81.6078-5.52086,113.40154C372.94019,391.08951,393.27709,372.00815,413.48541,372.32192Zm-45.242-107.22819c29.68691-28.28779,75.55143-27.57567,102.44129,1.5906s24.62242,75.74206-5.06449,104.02985c-14.84348,14.14392-33.26381-3.93613-51.80207-4.224s-37.19446,17.21654-50.63939,2.6334C336.28894,339.95734,338.55649,293.38157,368.24345,265.09373Z"/><ellipse cx="416.07522" cy="318.3476" rx="4.84672" ry="4.67073" transform="matrix(0.55393, -0.83256, 0.83256, 0.55393, -79.4459, 488.41405)"/><polygon points="417.046 315.668 418.546 314.451 466.835 376.661 465.335 377.879 417.046 315.668"/><polygon points="415.883 315.394 416.51 313.564 491.395 337.693 490.768 339.522 415.883 315.394"/><polygon points="414.189 316.074 413.361 314.381 484.71 276.624 485.539 278.318 414.189 316.074"/><polygon points="413.253 317.97 411.595 317.107 449.715 245.191 451.373 246.054 413.253 317.97"/><polygon points="413.511 319.944 411.634 320.24 402.082 240.672 403.958 240.377 413.511 319.944"/><polygon points="415.276 321.293 413.92 322.676 358.601 266.864 359.957 265.482 415.276 321.293"/><polygon points="337.777 318.145 337.956 316.231 416.987 321.117 416.808 323.031 337.777 318.145"/><polygon points="355.751 371.501 354.627 369.999 418.442 319.917 419.566 321.419 355.751 371.501"/><polygon points="401.692 372.164 400.049 371.601 419.398 318.255 421.04 318.819 401.692 372.164"/><path class="cls-2" d="M254.51751,152.9024c-2.464.716-14.74567-3.47579-27.29944-2.994-8.05855.30924-14.626,3.74714-14.7748.13945-.17882-4.33649,1.13195-16.3474,4.80719-24.51928,4.98366-11.08118,14.53306-18.2709,14.53306-18.2709A123.56557,123.56557,0,0,0,250.50073,125.603c7.87555,6.07172,18.46617,4.37017,18.94968,5.57893C271.54511,136.41866,258.02794,151.88239,254.51751,152.9024Z"/><path class="cls-2" d="M240.08362,178.25231s.47171,5.68946,19.11084,8.31879c16.61529,2.34383,50.16936,1.71943,71.565.85551,28.09289-1.13435,77.8322,4.61669,75.59415,6.25465-12.47015,9.12653-36.40276,25.91289-59.22942,44.72416-42.27843,34.84133-84.34194,73.49354-89.0394,72.57526-14.09816-2.756-40.04461-7.7769-61.40513-15.6334-50.25906-18.48552-52.90039-31.4031-52.90039-31.4031s23.636-19.75182,31.03114-26.86549c8.99207-8.64978,26.24438-26.74752,34.10575-36.43641,4.362-5.376,16.278-22.40239,16.278-22.40239s-23.961,25.45149-47.28437,47.53222c-16.99255,16.08723-33.3123,27.63414-38.34571,34.10566-8.90077,11.44381-13.71415,22.06663-12.95549,23.51817,2.14478,4.1036,12.58352,11.86449,29.67976,16.31523,77.10552,20.07325,80.67005,24.40286,99.52763,34.53974,1.611.866,14.96543-18.93191,35.829-40.21767,16.60682-16.94287,37.72436-34.35463,58.23143-51.98293,16.42679-14.12081,58.817-37.88044,66.265-44.12287.30035-.25173-6.29449,31.77887-7.15347,66.06663-.7311,29.18324,1.45836,67.79663,2.41745,78.14123.69425,7.48813,15.09514-15.35,15.3854-16.00524.51717-1.16753-7.81043-41.82877-7.41367-78.94708.10472-9.79684,2.28108-43.01421,4.74833-56.61968,0,0,4.24617-5.114,4.90944-7.141.57883-1.76894,7.24348,19.60454,13.12281,18.51578,10.042-1.85962,5.99517-43.87212,5.50457-44.12293-2.48571-1.27075-13.73781,13.15258-14.468,12.54632-.10088-.08377-7.36725.41221-7.36725.41221-.20106-3.11032,2.48264-23.05017,3.46826-35.956.65973-8.63868-4.3847.32016-5.54791.42151-1.1038.09618-4.43919,36.43126-5.69673,36.54183-16.32357,1.43514-45.06041,4.93644-75.3958,5.56642-28.34786.5887-58.22824-3.5153-79.68536-2.64077C237.48281,175.74539,240.08362,178.25231,240.08362,178.25231Z"/><path class="cls-2" d="M427.51937,136.44482l-3.34734,2.95682s-24.78584,4.50339-29.48452,6.239c-4.21176,1.55579-16.23462,7.68027-16.23462,7.68027s7.66791-15.61472,18.26783-19.13562c6.96618-2.3139,27.77056-4.27713,29.52482-7.891.86409-1.78008-2.0208-8.108-9.1308-8.1762a50.11664,50.11664,0,0,0-12.09693,1.98049c-3.92468,1.29732-10.89708,4.58961-14.85539,5.78035-2.57325.77409-10.90057,2.36483-10.90057,2.36483l7.63-12.08065s7.87664-1.78418,10.40853-2.68483c6.09031-2.16647,14.47727-7.35484,21.30213-8.359,3.83138-.56374,13.47918-1.28207,16.2718,1.40094,6.94883,6.6761,1.07857,17.97648,1.07857,17.97648Z"/><path class="cls-3" d="M451.043,160.99745a30.17244,30.17244,0,0,1,4.65914,20.60244c-.51861,4.269-2.93347,12.75909-5.25426,16.3795-1.76278,2.74994-8.05842,3.22336-8.05842,3.22336l5.331-8.6039a27.73042,27.73042,0,0,1-9.474-8.97818c-2.21916-3.5705-2.71343-8.07132-1.76432-10.579,1.69623-4.48165,11.73431-15.156,11.73431-15.156A39.40273,39.40273,0,0,1,451.043,160.99745Z"/><path class="cls-2" d="M444.28859,173.71657c-1.021,2.13429-7.46334,8.30637-7.46334,8.30637l-1.51793-3.28924S444.81643,172.61315,444.28859,173.71657Z"/><path class="cls-2" d="M448.06364,182.88458l-6.42128,7.95235-.828-2.4111a26.41048,26.41048,0,0,1,3.716-3.58864C445.30911,184.37919,448.06364,182.88458,448.06364,182.88458Z"/><path class="cls-2" d="M448.24577,163.011a66.81133,66.81133,0,0,1,1.95375,6.621c.30931,1.76037.78255,8.11715.78255,8.11715l-.71062,2.10547s-.0486-7.38341-.538-9.67232c-.2328-1.08883-.95607-4.06114-.95607-4.06114Z"/><path class="cls-2" d="M448.81457,198.319a5.5386,5.5386,0,0,0,1.44707-.875,36.93253,36.93253,0,0,0,5.47272-19.76713,55.6752,55.6752,0,0,0-2.99325-15.26673l-.62905.10821s2.85966,9.09363,2.91567,15.8198C455.08847,185.63183,448.81457,198.319,448.81457,198.319Z"/><path class="cls-2" d="M239.04535,149.27609l-9.78167-2.34315s4.66762,51.84663,8.32178,72.98139c4.52556,26.17469,22.18533,103.91023,22.18533,103.91023l11.92028-16.48875s-21.5066-68.46249-29.32633-106.48274C239.381,186.346,239.04535,149.27609,239.04535,149.27609Z"/></svg>